<?xml version="1.0" encoding="UTF-8" standalone="no"?>
<!DOCTYPE svg PUBLIC "-//W3C//DTD SVG 1.1//EN"
 "http://www.w3.org/Graphics/SVG/1.1/DTD/svg11.dtd">
<!-- Generated by graphviz version 2.38.0 (20140413.2041)
 -->
<!-- Title: dependencies Pages: 1 -->
<svg width="539pt" height="720pt"
 viewBox="0.00 0.00 539.42 720.00" xmlns="http://www.w3.org/2000/svg" xmlns:xlink="http://www.w3.org/1999/xlink">
<g id="graph0" class="graph" transform="scale(0.572301 0.572301) rotate(0) translate(4 1254.08)">
<title>dependencies</title>
<polygon fill="white" stroke="none" points="-4,4 -4,-1254.08 938.538,-1254.08 938.538,4 -4,4"/>
<!-- function.py -->
<g id="node1" class="node"><title>function.py</title>
<ellipse fill="lightgrey" stroke="black" cx="769.538" cy="-406.079" rx="27.8159" ry="18"/>
<text text-anchor="middle" x="769.538" y="-404.479" font-family="Times,serif" font-size="7.00">function.py</text>
</g>
<!-- control.py -->
<g id="node2" class="node"><title>control.py</title>
<ellipse fill="lightgrey" stroke="black" cx="900.538" cy="-777.079" rx="27" ry="18"/>
<text text-anchor="middle" x="900.538" y="-775.479" font-family="Times,serif" font-size="7.00">control.py</text>
</g>
<!-- function.py&#45;&gt;control.py -->
<g id="edge1" class="edge"><title>function.py&#45;&gt;control.py</title>
<path fill="none" stroke="black" d="M776.759,-423.974C797.578,-483.848 864.899,-677.46 889.993,-749.629"/>
<polygon fill="black" stroke="black" points="886.788,-751.069 893.378,-759.365 893.4,-748.77 886.788,-751.069"/>
</g>
<!-- mixins.py -->
<g id="node3" class="node"><title>mixins.py</title>
<ellipse fill="lightgrey" stroke="black" cx="769.538" cy="-100.079" rx="27" ry="18"/>
<text text-anchor="middle" x="769.538" y="-98.4794" font-family="Times,serif" font-size="7.00">mixins.py</text>
</g>
<!-- monoid.py -->
<g id="node4" class="node"><title>monoid.py</title>
<ellipse fill="lightgrey" stroke="black" cx="605.538" cy="-843.079" rx="27" ry="18"/>
<text text-anchor="middle" x="605.538" y="-841.479" font-family="Times,serif" font-size="7.00">monoid.py</text>
</g>
<!-- on_collections.py -->
<g id="node5" class="node"><title>on_collections.py</title>
<ellipse fill="lightgrey" stroke="black" cx="605.538" cy="-563.079" rx="38.5256" ry="18"/>
<text text-anchor="middle" x="605.538" y="-561.479" font-family="Times,serif" font-size="7.00">on_collections.py</text>
</g>
<!-- on_collections.py&#45;&gt;function.py -->
<g id="edge2" class="edge"><title>on_collections.py&#45;&gt;function.py</title>
<path fill="none" stroke="black" d="M634.495,-551.089C642.66,-546.938 651.325,-541.857 658.562,-536.079 697.13,-505.292 732.162,-459.379 751.87,-431.158"/>
<polygon fill="black" stroke="black" points="754.932,-432.881 757.715,-422.658 749.165,-428.914 754.932,-432.881"/>
</g>
<!-- pair.py -->
<g id="node6" class="node"><title>pair.py</title>
<ellipse fill="lightgrey" stroke="black" cx="244.538" cy="-881.079" rx="27" ry="18"/>
<text text-anchor="middle" x="244.538" y="-879.479" font-family="Times,serif" font-size="7.00">pair.py</text>
</g>
<!-- pair.py&#45;&gt;control.py -->
<g id="edge3" class="edge"><title>pair.py&#45;&gt;control.py</title>
<path fill="none" stroke="black" d="M268.653,-889.443C293.91,-898.102 335.754,-911.052 373.071,-916.079 419.29,-922.306 431.729,-921.881 478.004,-916.079 560.172,-905.777 581.012,-899.126 658.562,-870.079 691.823,-857.621 697.136,-847.771 729.908,-834.079 776.09,-814.786 831.322,-797.203 865.926,-786.817"/>
<polygon fill="black" stroke="black" points="866.955,-790.163 875.542,-783.958 864.959,-783.453 866.955,-790.163"/>
</g>
<!-- _dataclass.py -->
<g id="node7" class="node"><title>_dataclass.py</title>
<ellipse fill="lightgrey" stroke="black" cx="425.538" cy="-835.079" rx="31.0154" ry="18"/>
<text text-anchor="middle" x="425.538" y="-833.479" font-family="Times,serif" font-size="7.00">_dataclass.py</text>
</g>
<!-- pair.py&#45;&gt;_dataclass.py -->
<g id="edge4" class="edge"><title>pair.py&#45;&gt;_dataclass.py</title>
<path fill="none" stroke="black" d="M270.051,-874.78C300.204,-867.031 351.708,-853.795 386.892,-844.754"/>
<polygon fill="black" stroke="black" points="387.983,-848.087 396.797,-842.208 386.241,-841.307 387.983,-848.087"/>
</g>
<!-- qlambda.py -->
<g id="node8" class="node"><title>qlambda.py</title>
<ellipse fill="lightgrey" stroke="black" cx="605.538" cy="-119.079" rx="27.8159" ry="18"/>
<text text-anchor="middle" x="605.538" y="-117.479" font-family="Times,serif" font-size="7.00">qlambda.py</text>
</g>
<!-- qlambda.py&#45;&gt;function.py -->
<g id="edge5" class="edge"><title>qlambda.py&#45;&gt;function.py</title>
<path fill="none" stroke="black" d="M628.976,-128.977C639.078,-134.335 650.514,-141.777 658.562,-151.079 718.789,-220.688 750.351,-328.3 762.506,-378.514"/>
<polygon fill="black" stroke="black" points="759.116,-379.389 764.808,-388.324 765.931,-377.789 759.116,-379.389"/>
</g>
<!-- qlambda.py&#45;&gt;control.py -->
<g id="edge6" class="edge"><title>qlambda.py&#45;&gt;control.py</title>
<path fill="none" stroke="black" d="M626.334,-131.179C636.622,-138.025 649.005,-147.184 658.562,-157.079 741.391,-242.84 761.676,-269.717 809.167,-379.079 866.111,-510.214 889.431,-681.872 896.756,-748.718"/>
<polygon fill="black" stroke="black" points="893.298,-749.307 897.833,-758.882 900.259,-748.569 893.298,-749.307"/>
</g>
<!-- qlambda.py&#45;&gt;mixins.py -->
<g id="edge7" class="edge"><title>qlambda.py&#45;&gt;mixins.py</title>
<path fill="none" stroke="black" d="M633.289,-115.942C660.46,-112.755 702.705,-107.8 732.746,-104.277"/>
<polygon fill="black" stroke="black" points="733.294,-107.737 742.818,-103.096 732.478,-100.785 733.294,-107.737"/>
</g>
<!-- list.py -->
<g id="node9" class="node"><title>list.py</title>
<ellipse fill="lightgrey" stroke="black" cx="605.538" cy="-785.079" rx="27" ry="18"/>
<text text-anchor="middle" x="605.538" y="-783.479" font-family="Times,serif" font-size="7.00">list.py</text>
</g>
<!-- list.py&#45;&gt;control.py -->
<g id="edge8" class="edge"><title>list.py&#45;&gt;control.py</title>
<path fill="none" stroke="black" d="M632.539,-784.369C684.86,-782.941 802.97,-779.716 863.013,-778.077"/>
<polygon fill="black" stroke="black" points="863.272,-781.571 873.173,-777.799 863.081,-774.574 863.272,-781.571"/>
</g>
<!-- convert.py -->
<g id="node10" class="node"><title>convert.py</title>
<ellipse fill="lightgrey" stroke="black" cx="425.538" cy="-433.079" rx="27" ry="18"/>
<text text-anchor="middle" x="425.538" y="-431.479" font-family="Times,serif" font-size="7.00">convert.py</text>
</g>
<!-- convert.py&#45;&gt;function.py -->
<g id="edge9" class="edge"><title>convert.py&#45;&gt;function.py</title>
<path fill="none" stroke="black" d="M452.524,-431.028C512.721,-426.275 661.889,-414.499 731.569,-408.998"/>
<polygon fill="black" stroke="black" points="731.956,-412.478 741.649,-408.202 731.405,-405.5 731.956,-412.478"/>
</g>
<!-- iterable.py -->
<g id="node11" class="node"><title>iterable.py</title>
<ellipse fill="lightgrey" stroke="black" cx="425.538" cy="-613.079" rx="27" ry="18"/>
<text text-anchor="middle" x="425.538" y="-611.479" font-family="Times,serif" font-size="7.00">iterable.py</text>
</g>
<!-- iterable.py&#45;&gt;function.py -->
<g id="edge12" class="edge"><title>iterable.py&#45;&gt;function.py</title>
<path fill="none" stroke="black" d="M451.903,-617.498C497.269,-623.997 593.622,-631.287 658.562,-590.079 716.064,-553.592 747.552,-475.251 760.836,-433.536"/>
<polygon fill="black" stroke="black" points="764.246,-434.354 763.826,-423.767 757.552,-432.305 764.246,-434.354"/>
</g>
<!-- iterable.py&#45;&gt;control.py -->
<g id="edge10" class="edge"><title>iterable.py&#45;&gt;control.py</title>
<path fill="none" stroke="black" d="M446.167,-624.889C475.844,-642.56 530.953,-674.609 552.513,-682.079 661.797,-719.946 700.287,-686.065 809.167,-725.079 831.949,-733.243 855.583,-747.062 872.966,-758.403"/>
<polygon fill="black" stroke="black" points="871.188,-761.425 881.448,-764.065 875.074,-755.602 871.188,-761.425"/>
</g>
<!-- iterable.py&#45;&gt;monoid.py -->
<g id="edge11" class="edge"><title>iterable.py&#45;&gt;monoid.py</title>
<path fill="none" stroke="black" d="M434.073,-630.399C450.866,-667.448 494.498,-755.609 552.513,-812.079 558.848,-818.246 566.636,-823.707 574.237,-828.26"/>
<polygon fill="black" stroke="black" points="572.545,-831.324 582.977,-833.175 575.976,-825.222 572.545,-831.324"/>
</g>
<!-- iterable.py&#45;&gt;on_collections.py -->
<g id="edge13" class="edge"><title>iterable.py&#45;&gt;on_collections.py</title>
<path fill="none" stroke="black" d="M450.914,-606.232C479.512,-598.199 527.424,-584.741 562.148,-574.987"/>
<polygon fill="black" stroke="black" points="563.333,-578.289 572.014,-572.215 561.44,-571.55 563.333,-578.289"/>
</g>
<!-- utils.py -->
<g id="node12" class="node"><title>utils.py</title>
<ellipse fill="lightgrey" stroke="black" cx="65.5376" cy="-908.079" rx="27" ry="18"/>
<text text-anchor="middle" x="65.5376" y="-906.479" font-family="Times,serif" font-size="7.00">utils.py</text>
</g>
<!-- maybe.py -->
<g id="node13" class="node"><title>maybe.py</title>
<ellipse fill="lightgrey" stroke="black" cx="769.538" cy="-915.079" rx="27" ry="18"/>
<text text-anchor="middle" x="769.538" y="-913.479" font-family="Times,serif" font-size="7.00">maybe.py</text>
</g>
<!-- maybe.py&#45;&gt;control.py -->
<g id="edge14" class="edge"><title>maybe.py&#45;&gt;control.py</title>
<path fill="none" stroke="black" d="M789.806,-903.158C796.255,-898.774 803.293,-893.538 809.167,-888.079 837.898,-861.38 865.554,-825.409 882.538,-801.748"/>
<polygon fill="black" stroke="black" points="885.579,-803.511 888.505,-793.328 879.868,-799.463 885.579,-803.511"/>
</g>
<!-- collections/dataclasses_.py -->
<g id="node14" class="node"><title>collections/dataclasses_.py</title>
<ellipse fill="lightgrey" stroke="black" cx="244.538" cy="-636.079" rx="53.6661" ry="18"/>
<text text-anchor="middle" x="244.538" y="-634.479" font-family="Times,serif" font-size="7.00">collections/dataclasses_.py</text>
</g>
<!-- collections/dataclasses_.py&#45;&gt;function.py -->
<g id="edge18" class="edge"><title>collections/dataclasses_.py&#45;&gt;function.py</title>
<path fill="none" stroke="black" d="M272.095,-620.531C297.677,-605.736 337.61,-583.119 373.071,-565.079 451.389,-525.236 471.1,-515.142 552.513,-482.079 615.942,-456.32 691.78,-430.829 734.636,-416.899"/>
<polygon fill="black" stroke="black" points="735.846,-420.186 744.283,-413.778 733.692,-413.526 735.846,-420.186"/>
</g>
<!-- collections/dataclasses_.py&#45;&gt;control.py -->
<g id="edge15" class="edge"><title>collections/dataclasses_.py&#45;&gt;control.py</title>
<path fill="none" stroke="black" d="M295.601,-642.012C343.115,-648.321 416.241,-659.795 478.004,-677.079 512.224,-686.656 518.426,-696.038 552.513,-706.079 664.269,-739.003 800.672,-762.081 864.035,-771.855"/>
<polygon fill="black" stroke="black" points="863.508,-775.315 873.922,-773.363 864.564,-768.395 863.508,-775.315"/>
</g>
<!-- collections/dataclasses_.py&#45;&gt;on_collections.py -->
<g id="edge19" class="edge"><title>collections/dataclasses_.py&#45;&gt;on_collections.py</title>
<path fill="none" stroke="black" d="M275.953,-621.408C301.321,-609.849 338.736,-594.349 373.071,-586.079 435.303,-571.091 509.211,-565.846 556.477,-564.025"/>
<polygon fill="black" stroke="black" points="556.855,-567.514 566.727,-563.667 556.611,-560.518 556.855,-567.514"/>
</g>
<!-- collections/dataclasses_.py&#45;&gt;_dataclass.py -->
<g id="edge21" class="edge"><title>collections/dataclasses_.py&#45;&gt;_dataclass.py</title>
<path fill="none" stroke="black" d="M255.151,-653.988C273.99,-687.739 318.707,-761.545 373.071,-808.079 378.324,-812.576 384.453,-816.6 390.612,-820.082"/>
<polygon fill="black" stroke="black" points="389.08,-823.231 399.56,-824.788 392.339,-817.036 389.08,-823.231"/>
</g>
<!-- collections/dataclasses_.py&#45;&gt;list.py -->
<g id="edge16" class="edge"><title>collections/dataclasses_.py&#45;&gt;list.py</title>
<path fill="none" stroke="black" d="M283.517,-648.431C329.992,-663.894 410.792,-691.914 478.004,-721.079 512.047,-735.851 549.871,-755.417 575.22,-769.01"/>
<polygon fill="black" stroke="black" points="573.828,-772.236 584.29,-773.904 577.152,-766.075 573.828,-772.236"/>
</g>
<!-- collections/dataclasses_.py&#45;&gt;convert.py -->
<g id="edge23" class="edge"><title>collections/dataclasses_.py&#45;&gt;convert.py</title>
<path fill="none" stroke="black" d="M255.647,-618.381C275.153,-585.322 320.711,-513.19 373.071,-465.079 379.586,-459.093 387.375,-453.587 394.897,-448.891"/>
<polygon fill="black" stroke="black" points="396.704,-451.888 403.512,-443.77 393.128,-445.871 396.704,-451.888"/>
</g>
<!-- collections/dataclasses_.py&#45;&gt;iterable.py -->
<g id="edge17" class="edge"><title>collections/dataclasses_.py&#45;&gt;iterable.py</title>
<path fill="none" stroke="black" d="M294.924,-629.734C324.523,-625.93 361.503,-621.179 388.379,-617.726"/>
<polygon fill="black" stroke="black" points="389.034,-621.17 398.506,-616.424 388.142,-614.227 389.034,-621.17"/>
</g>
<!-- collections/concatenate.py -->
<g id="node15" class="node"><title>collections/concatenate.py</title>
<ellipse fill="lightgrey" stroke="black" cx="425.538" cy="-781.079" rx="52.4334" ry="18"/>
<text text-anchor="middle" x="425.538" y="-779.479" font-family="Times,serif" font-size="7.00">collections/concatenate.py</text>
</g>
<!-- collections/dataclasses_.py&#45;&gt;collections/concatenate.py -->
<g id="edge20" class="edge"><title>collections/dataclasses_.py&#45;&gt;collections/concatenate.py</title>
<path fill="none" stroke="black" d="M266.071,-652.713C297.952,-678.538 359.456,-728.36 395.753,-757.762"/>
<polygon fill="black" stroke="black" points="393.995,-760.842 403.969,-764.417 398.401,-755.403 393.995,-760.842"/>
</g>
<!-- tensor/unary_with_args.py -->
<g id="node16" class="node"><title>tensor/unary_with_args.py</title>
<ellipse fill="lightgrey" stroke="black" cx="605.538" cy="-303.079" rx="53.0497" ry="18"/>
<text text-anchor="middle" x="605.538" y="-301.479" font-family="Times,serif" font-size="7.00">tensor/unary_with_args.py</text>
</g>
<!-- collections/dataclasses_.py&#45;&gt;tensor/unary_with_args.py -->
<g id="edge22" class="edge"><title>collections/dataclasses_.py&#45;&gt;tensor/unary_with_args.py</title>
<path fill="none" stroke="black" d="M251.089,-618.011C264.975,-575.564 305.061,-468.377 373.071,-406.079 424.458,-359.008 500.898,-330.749 551.697,-316.046"/>
<polygon fill="black" stroke="black" points="552.824,-319.365 561.5,-313.285 550.926,-312.627 552.824,-319.365"/>
</g>
<!-- collections/concatenate.py&#45;&gt;monoid.py -->
<g id="edge28" class="edge"><title>collections/concatenate.py&#45;&gt;monoid.py</title>
<path fill="none" stroke="black" d="M462.988,-793.776C494.789,-804.852 540.535,-820.786 571.336,-831.515"/>
<polygon fill="black" stroke="black" points="570.572,-834.955 581.167,-834.939 572.875,-828.345 570.572,-834.955"/>
</g>
<!-- collections/concatenate.py&#45;&gt;list.py -->
<g id="edge29" class="edge"><title>collections/concatenate.py&#45;&gt;list.py</title>
<path fill="none" stroke="black" d="M478.023,-782.236C506.9,-782.885 542.228,-783.679 568.205,-784.263"/>
<polygon fill="black" stroke="black" points="568.293,-787.766 578.369,-784.491 568.45,-780.767 568.293,-787.766"/>
</g>
<!-- tensor/unary_with_args.py&#45;&gt;function.py -->
<g id="edge37" class="edge"><title>tensor/unary_with_args.py&#45;&gt;function.py</title>
<path fill="none" stroke="black" d="M632.274,-318.757C640.678,-323.917 650.04,-329.708 658.562,-335.079 686.613,-352.758 718.411,-373.347 740.574,-387.787"/>
<polygon fill="black" stroke="black" points="738.863,-390.85 749.151,-393.382 742.688,-384.987 738.863,-390.85"/>
</g>
<!-- collections/table.py -->
<g id="node17" class="node"><title>collections/table.py</title>
<ellipse fill="lightgrey" stroke="black" cx="65.5376" cy="-854.079" rx="41.1081" ry="18"/>
<text text-anchor="middle" x="65.5376" y="-852.479" font-family="Times,serif" font-size="7.00">collections/table.py</text>
</g>
<!-- collections/table.py&#45;&gt;control.py -->
<g id="edge24" class="edge"><title>collections/table.py&#45;&gt;control.py</title>
<path fill="none" stroke="black" d="M93.2673,-867.647C100.996,-871.775 109.372,-876.449 116.888,-881.079 151.132,-902.177 155.044,-914.964 190.955,-933.079 288.675,-982.374 315.088,-1011.08 424.538,-1011.08 424.538,-1011.08 424.538,-1011.08 606.538,-1011.08 698.6,-1011.08 736.948,-1025.18 809.167,-968.079 861.694,-926.552 885.259,-847.142 894.459,-804.983"/>
<polygon fill="black" stroke="black" points="897.902,-805.614 896.497,-795.112 891.047,-804.198 897.902,-805.614"/>
</g>
<!-- collections/table.py&#45;&gt;monoid.py -->
<g id="edge25" class="edge"><title>collections/table.py&#45;&gt;monoid.py</title>
<path fill="none" stroke="black" d="M91.8048,-868.333C116.298,-881.343 154.932,-899.77 190.955,-908.079 315.316,-936.765 354.721,-949.092 478.004,-916.079 516.187,-905.855 554.778,-881.022 579.128,-863.158"/>
<polygon fill="black" stroke="black" points="581.528,-865.732 587.427,-856.931 577.327,-860.133 581.528,-865.732"/>
</g>
<!-- collections/table.py&#45;&gt;list.py -->
<g id="edge27" class="edge"><title>collections/table.py&#45;&gt;list.py</title>
<path fill="none" stroke="black" d="M94.9471,-841.44C148.195,-818.519 267.203,-770.911 373.071,-754.079 419.129,-746.757 431.703,-748.49 478.004,-754.079 509.975,-757.939 545.525,-767.095 570.782,-774.461"/>
<polygon fill="black" stroke="black" points="570.016,-777.885 580.599,-777.386 572.015,-771.177 570.016,-777.885"/>
</g>
<!-- collections/table.py&#45;&gt;collections/dataclasses_.py -->
<g id="edge26" class="edge"><title>collections/table.py&#45;&gt;collections/dataclasses_.py</title>
<path fill="none" stroke="black" d="M80.4264,-836.973C111.498,-798.704 186.744,-706.029 223.143,-661.198"/>
<polygon fill="black" stroke="black" points="225.882,-663.377 229.468,-653.408 220.448,-658.965 225.882,-663.377"/>
</g>
<!-- collections/iterator.py -->
<g id="node18" class="node"><title>collections/iterator.py</title>
<ellipse fill="lightgrey" stroke="black" cx="65.5376" cy="-962.079" rx="45.4223" ry="18"/>
<text text-anchor="middle" x="65.5376" y="-960.479" font-family="Times,serif" font-size="7.00">collections/iterator.py</text>
</g>
<!-- collections/dict.py -->
<g id="node19" class="node"><title>collections/dict.py</title>
<ellipse fill="lightgrey" stroke="black" cx="769.538" cy="-861.079" rx="39.7586" ry="18"/>
<text text-anchor="middle" x="769.538" y="-859.479" font-family="Times,serif" font-size="7.00">collections/dict.py</text>
</g>
<!-- collections/dict.py&#45;&gt;control.py -->
<g id="edge30" class="edge"><title>collections/dict.py&#45;&gt;control.py</title>
<path fill="none" stroke="black" d="M793.008,-846.448C815.027,-832.11 848.621,-810.235 872.182,-794.892"/>
<polygon fill="black" stroke="black" points="874.206,-797.751 880.676,-789.361 870.386,-791.885 874.206,-797.751"/>
</g>
<!-- collections/composite.py -->
<g id="node20" class="node"><title>collections/composite.py</title>
<ellipse fill="lightgrey" stroke="black" cx="425.538" cy="-889.079" rx="50.4692" ry="18"/>
<text text-anchor="middle" x="425.538" y="-887.479" font-family="Times,serif" font-size="7.00">collections/composite.py</text>
</g>
<!-- collections/composite.py&#45;&gt;control.py -->
<g id="edge31" class="edge"><title>collections/composite.py&#45;&gt;control.py</title>
<path fill="none" stroke="black" d="M454.378,-904.126C520.92,-937.849 692.33,-1011.3 809.167,-942.079 859.38,-912.33 883.526,-843.714 893.529,-804.989"/>
<polygon fill="black" stroke="black" points="897.017,-805.461 895.986,-794.917 890.216,-803.803 897.017,-805.461"/>
</g>
<!-- collections/composite.py&#45;&gt;monoid.py -->
<g id="edge32" class="edge"><title>collections/composite.py&#45;&gt;monoid.py</title>
<path fill="none" stroke="black" d="M466.929,-878.641C498.125,-870.579 540.816,-859.547 570.337,-851.918"/>
<polygon fill="black" stroke="black" points="571.384,-855.262 580.19,-849.372 569.632,-848.485 571.384,-855.262"/>
</g>
<!-- collections/composite.py&#45;&gt;list.py -->
<g id="edge33" class="edge"><title>collections/composite.py&#45;&gt;list.py</title>
<path fill="none" stroke="black" d="M455.314,-874.436C462.761,-870.523 470.729,-866.227 478.004,-862.079 511.814,-842.806 519.238,-836.263 552.513,-816.079 560.137,-811.455 568.42,-806.492 576.087,-801.922"/>
<polygon fill="black" stroke="black" points="577.924,-804.902 584.73,-796.783 574.346,-798.886 577.924,-804.902"/>
</g>
<!-- collections/foldable.py -->
<g id="node21" class="node"><title>collections/foldable.py</title>
<ellipse fill="lightgrey" stroke="black" cx="65.5376" cy="-1016.08" rx="46.7705" ry="18"/>
<text text-anchor="middle" x="65.5376" y="-1014.48" font-family="Times,serif" font-size="7.00">collections/foldable.py</text>
</g>
<!-- tensor/unary_reduce.py -->
<g id="node22" class="node"><title>tensor/unary_reduce.py</title>
<ellipse fill="lightgrey" stroke="black" cx="425.538" cy="-157.079" rx="47.3866" ry="18"/>
<text text-anchor="middle" x="425.538" y="-155.479" font-family="Times,serif" font-size="7.00">tensor/unary_reduce.py</text>
</g>
<!-- tensor/unary_reduce.py&#45;&gt;function.py -->
<g id="edge34" class="edge"><title>tensor/unary_reduce.py&#45;&gt;function.py</title>
<path fill="none" stroke="black" d="M472.971,-154.638C523.395,-154.353 604.015,-161.065 658.562,-201.079 719.01,-245.422 749.617,-333.237 761.878,-378.17"/>
<polygon fill="black" stroke="black" points="758.56,-379.318 764.479,-388.105 765.332,-377.545 758.56,-379.318"/>
</g>
<!-- tensor/matrix.py -->
<g id="node23" class="node"><title>tensor/matrix.py</title>
<ellipse fill="lightgrey" stroke="black" cx="65.5376" cy="-176.079" rx="36.0616" ry="18"/>
<text text-anchor="middle" x="65.5376" y="-174.479" font-family="Times,serif" font-size="7.00">tensor/matrix.py</text>
</g>
<!-- tensor/tensor.py -->
<g id="node24" class="node"><title>tensor/tensor.py</title>
<ellipse fill="lightgrey" stroke="black" cx="244.538" cy="-203.079" rx="35.9454" ry="18"/>
<text text-anchor="middle" x="244.538" y="-201.479" font-family="Times,serif" font-size="7.00">tensor/tensor.py</text>
</g>
<!-- tensor/matrix.py&#45;&gt;tensor/tensor.py -->
<g id="edge35" class="edge"><title>tensor/matrix.py&#45;&gt;tensor/tensor.py</title>
<path fill="none" stroke="black" d="M100.665,-181.285C129.005,-185.608 169.49,-191.784 200.132,-196.458"/>
<polygon fill="black" stroke="black" points="199.702,-199.933 210.115,-197.981 200.757,-193.013 199.702,-199.933"/>
</g>
<!-- tensor/.py -->
<g id="node25" class="node"><title>tensor/.py</title>
<ellipse fill="lightgrey" stroke="black" cx="244.538" cy="-149.079" rx="27" ry="18"/>
<text text-anchor="middle" x="244.538" y="-147.479" font-family="Times,serif" font-size="7.00">tensor/.py</text>
</g>
<!-- tensor/matrix.py&#45;&gt;tensor/.py -->
<g id="edge36" class="edge"><title>tensor/matrix.py&#45;&gt;tensor/.py</title>
<path fill="none" stroke="black" d="M100.665,-170.874C131.532,-166.165 176.807,-159.259 208.079,-154.488"/>
<polygon fill="black" stroke="black" points="208.749,-157.927 218.107,-152.959 207.694,-151.007 208.749,-157.927"/>
</g>
<!-- tensor/tensor.py&#45;&gt;control.py -->
<g id="edge45" class="edge"><title>tensor/tensor.py&#45;&gt;control.py</title>
<path fill="none" stroke="black" d="M272.33,-191.658C280.963,-187.381 290.31,-182.083 298.121,-176.079 337.527,-145.789 328.233,-114.526 373.071,-93.0794 548.103,-9.35828 663.498,55.085 809.167,-73.0794 860.968,-118.656 891.301,-623.35 898.08,-748.919"/>
<polygon fill="black" stroke="black" points="894.586,-749.112 898.613,-758.912 901.576,-748.74 894.586,-749.112"/>
</g>
<!-- tensor/tensor.py&#45;&gt;mixins.py -->
<g id="edge46" class="edge"><title>tensor/tensor.py&#45;&gt;mixins.py</title>
<path fill="none" stroke="black" d="M270.62,-190.69C279.396,-186.227 289.266,-181.06 298.121,-176.079 332.185,-156.917 336.768,-144.561 373.071,-130.079 491.964,-82.6508 530.643,-87.4329 658.562,-92.0794 683.223,-92.9752 710.933,-94.9973 732.369,-96.7843"/>
<polygon fill="black" stroke="black" points="732.085,-100.273 742.347,-97.6366 732.681,-93.2981 732.085,-100.273"/>
</g>
<!-- tensor/tensor.py&#45;&gt;tensor/unary_with_args.py -->
<g id="edge50" class="edge"><title>tensor/tensor.py&#45;&gt;tensor/unary_with_args.py</title>
<path fill="none" stroke="black" d="M279.872,-200.241C326.352,-197.644 411.164,-197.351 478.004,-222.079 516.361,-236.27 517.71,-254.601 552.513,-276.079 556.626,-278.618 561.004,-281.144 565.407,-283.575"/>
<polygon fill="black" stroke="black" points="563.936,-286.758 574.402,-288.404 567.247,-280.59 563.936,-286.758"/>
</g>
<!-- tensor/tensor.py&#45;&gt;tensor/unary_reduce.py -->
<g id="edge49" class="edge"><title>tensor/tensor.py&#45;&gt;tensor/unary_reduce.py</title>
<path fill="none" stroke="black" d="M276.717,-195.067C304.103,-188.029 344.393,-177.675 375.996,-169.554"/>
<polygon fill="black" stroke="black" points="377.11,-172.881 385.924,-167.002 375.368,-166.102 377.11,-172.881"/>
</g>
<!-- tensor/binary.py -->
<g id="node27" class="node"><title>tensor/binary.py</title>
<ellipse fill="lightgrey" stroke="black" cx="425.538" cy="-303.079" rx="36.0616" ry="18"/>
<text text-anchor="middle" x="425.538" y="-301.479" font-family="Times,serif" font-size="7.00">tensor/binary.py</text>
</g>
<!-- tensor/tensor.py&#45;&gt;tensor/binary.py -->
<g id="edge47" class="edge"><title>tensor/tensor.py&#45;&gt;tensor/binary.py</title>
<path fill="none" stroke="black" d="M268.434,-216.523C293.85,-231.367 336.16,-255.842 373.071,-276.079 378.761,-279.199 384.84,-282.455 390.754,-285.583"/>
<polygon fill="black" stroke="black" points="389.351,-288.799 399.831,-290.353 392.607,-282.603 389.351,-288.799"/>
</g>
<!-- tensor/unary.py -->
<g id="node30" class="node"><title>tensor/unary.py</title>
<ellipse fill="lightgrey" stroke="black" cx="425.538" cy="-249.079" rx="34.7117" ry="18"/>
<text text-anchor="middle" x="425.538" y="-247.479" font-family="Times,serif" font-size="7.00">tensor/unary.py</text>
</g>
<!-- tensor/tensor.py&#45;&gt;tensor/unary.py -->
<g id="edge48" class="edge"><title>tensor/tensor.py&#45;&gt;tensor/unary.py</title>
<path fill="none" stroke="black" d="M276.717,-211.092C306.544,-218.757 351.676,-230.355 384.222,-238.719"/>
<polygon fill="black" stroke="black" points="383.755,-242.213 394.312,-241.312 385.498,-235.433 383.755,-242.213"/>
</g>
<!-- tensor/construct.py -->
<g id="node26" class="node"><title>tensor/construct.py</title>
<ellipse fill="lightgrey" stroke="black" cx="605.538" cy="-509.079" rx="40.9923" ry="18"/>
<text text-anchor="middle" x="605.538" y="-507.479" font-family="Times,serif" font-size="7.00">tensor/construct.py</text>
</g>
<!-- tensor/construct.py&#45;&gt;function.py -->
<g id="edge38" class="edge"><title>tensor/construct.py&#45;&gt;function.py</title>
<path fill="none" stroke="black" d="M630.172,-494.692C639.096,-489.22 649.322,-482.903 658.562,-477.079 686.613,-459.401 718.411,-438.812 740.574,-424.372"/>
<polygon fill="black" stroke="black" points="742.688,-427.172 749.151,-418.777 738.863,-421.309 742.688,-427.172"/>
</g>
<!-- tensor/binary.py&#45;&gt;function.py -->
<g id="edge39" class="edge"><title>tensor/binary.py&#45;&gt;function.py</title>
<path fill="none" stroke="black" d="M456.888,-312.22C520.485,-331.374 667.362,-375.608 734.246,-395.752"/>
<polygon fill="black" stroke="black" points="733.308,-399.125 743.892,-398.657 735.327,-392.422 733.308,-399.125"/>
</g>
<!-- tensor/binary.py&#45;&gt;tensor/unary_with_args.py -->
<g id="edge40" class="edge"><title>tensor/binary.py&#45;&gt;tensor/unary_with_args.py</title>
<path fill="none" stroke="black" d="M462.131,-303.079C485.071,-303.079 515.523,-303.079 542.379,-303.079"/>
<polygon fill="black" stroke="black" points="542.472,-306.58 552.472,-303.079 542.472,-299.58 542.472,-306.58"/>
</g>
<!-- tensor/backends.py -->
<g id="node28" class="node"><title>tensor/backends.py</title>
<ellipse fill="lightgrey" stroke="black" cx="605.538" cy="-249.079" rx="40.9923" ry="18"/>
<text text-anchor="middle" x="605.538" y="-247.479" font-family="Times,serif" font-size="7.00">tensor/backends.py</text>
</g>
<!-- tensor/backends.py&#45;&gt;function.py -->
<g id="edge41" class="edge"><title>tensor/backends.py&#45;&gt;function.py</title>
<path fill="none" stroke="black" d="M635.304,-261.484C643.229,-265.556 651.564,-270.493 658.562,-276.079 697.13,-306.867 732.162,-352.78 751.87,-381.001"/>
<polygon fill="black" stroke="black" points="749.165,-383.244 757.715,-389.501 754.932,-379.278 749.165,-383.244"/>
</g>
<!-- tensor/vector.py -->
<g id="node29" class="node"><title>tensor/vector.py</title>
<ellipse fill="lightgrey" stroke="black" cx="65.5376" cy="-303.079" rx="35.9454" ry="18"/>
<text text-anchor="middle" x="65.5376" y="-301.479" font-family="Times,serif" font-size="7.00">tensor/vector.py</text>
</g>
<!-- tensor/vector.py&#45;&gt;function.py -->
<g id="edge44" class="edge"><title>tensor/vector.py&#45;&gt;function.py</title>
<path fill="none" stroke="black" d="M99.9242,-307.978C217.214,-325.187 609.88,-382.801 731.984,-400.716"/>
<polygon fill="black" stroke="black" points="731.556,-404.191 741.958,-402.18 732.572,-397.265 731.556,-404.191"/>
</g>
<!-- tensor/vector.py&#45;&gt;tensor/tensor.py -->
<g id="edge42" class="edge"><title>tensor/vector.py&#45;&gt;tensor/tensor.py</title>
<path fill="none" stroke="black" d="M90.0418,-289.8C121.118,-272.243 176.025,-241.222 211.053,-221.432"/>
<polygon fill="black" stroke="black" points="212.951,-224.38 219.936,-216.414 209.508,-218.285 212.951,-224.38"/>
</g>
<!-- tensor/vector.py&#45;&gt;tensor/binary.py -->
<g id="edge43" class="edge"><title>tensor/vector.py&#45;&gt;tensor/binary.py</title>
<path fill="none" stroke="black" d="M101.516,-303.079C166.665,-303.079 306.536,-303.079 378.971,-303.079"/>
<polygon fill="black" stroke="black" points="379.152,-306.58 389.152,-303.079 379.152,-299.58 379.152,-306.58"/>
</g>
<!-- tensor/unary.py&#45;&gt;function.py -->
<g id="edge52" class="edge"><title>tensor/unary.py&#45;&gt;function.py</title>
<path fill="none" stroke="black" d="M451.488,-237.04C496.197,-217.348 591.544,-184.059 658.562,-222.079 718.071,-255.839 748.825,-336.002 761.434,-378.511"/>
<polygon fill="black" stroke="black" points="758.09,-379.547 764.189,-388.211 764.824,-377.635 758.09,-379.547"/>
</g>
<!-- tensor/unary.py&#45;&gt;list.py -->
<g id="edge51" class="edge"><title>tensor/unary.py&#45;&gt;list.py</title>
<path fill="none" stroke="black" d="M455.259,-258.525C463.769,-262.652 472.322,-268.36 478.004,-276.079 586.765,-423.822 494.001,-508.202 552.513,-682.079 561.877,-709.906 577.57,-739.629 589.276,-759.957"/>
<polygon fill="black" stroke="black" points="586.262,-761.737 594.337,-768.595 592.302,-758.198 586.262,-761.737"/>
</g>
<!-- tensor/impls/matmul.py -->
<g id="node31" class="node"><title>tensor/impls/matmul.py</title>
<ellipse fill="lightgrey" stroke="black" cx="65.5376" cy="-1070.08" rx="48.0029" ry="18"/>
<text text-anchor="middle" x="65.5376" y="-1068.48" font-family="Times,serif" font-size="7.00">tensor/impls/matmul.py</text>
</g>
<!-- tensor/impls/construct.py -->
<g id="node32" class="node"><title>tensor/impls/construct.py</title>
<ellipse fill="lightgrey" stroke="black" cx="65.5376" cy="-1124.08" rx="51.2012" ry="18"/>
<text text-anchor="middle" x="65.5376" y="-1122.48" font-family="Times,serif" font-size="7.00">tensor/impls/construct.py</text>
</g>
<!-- tensor/impls/unary.py -->
<g id="node33" class="node"><title>tensor/impls/unary.py</title>
<ellipse fill="lightgrey" stroke="black" cx="65.5376" cy="-1178.08" rx="45.4223" ry="18"/>
<text text-anchor="middle" x="65.5376" y="-1176.48" font-family="Times,serif" font-size="7.00">tensor/impls/unary.py</text>
</g>
<!-- io/api.py -->
<g id="node34" class="node"><title>io/api.py</title>
<ellipse fill="lightgrey" stroke="black" cx="605.538" cy="-655.079" rx="27" ry="18"/>
<text text-anchor="middle" x="605.538" y="-653.479" font-family="Times,serif" font-size="7.00">io/api.py</text>
</g>
<!-- io/api.py&#45;&gt;function.py -->
<g id="edge53" class="edge"><title>io/api.py&#45;&gt;function.py</title>
<path fill="none" stroke="black" d="M628.203,-645.232C638.371,-639.802 650.086,-632.284 658.562,-623.079 711.536,-565.553 745.411,-477.724 760.103,-433.52"/>
<polygon fill="black" stroke="black" points="763.51,-434.36 763.267,-423.768 756.852,-432.2 763.51,-434.36"/>
</g>
<!-- io/data_class_fs.py -->
<g id="node35" class="node"><title>io/data_class_fs.py</title>
<ellipse fill="lightgrey" stroke="black" cx="65.5376" cy="-1232.08" rx="40.9923" ry="18"/>
<text text-anchor="middle" x="65.5376" y="-1230.48" font-family="Times,serif" font-size="7.00">io/data_class_fs.py</text>
</g>
</g>
</svg>
