<?xml version="1.0" encoding="UTF-8" standalone="no"?>
<!DOCTYPE svg PUBLIC "-//W3C//DTD SVG 1.1//EN"
 "http://www.w3.org/Graphics/SVG/1.1/DTD/svg11.dtd">
<!-- Generated by graphviz version 2.38.0 (20140413.2041)
 -->
<!-- Title: dependencies Pages: 1 -->
<svg width="541pt" height="720pt"
 viewBox="0.00 0.00 541.46 720.00" xmlns="http://www.w3.org/2000/svg" xmlns:xlink="http://www.w3.org/1999/xlink">
<g id="graph0" class="graph" transform="scale(0.608078 0.608078) rotate(0) translate(4 1180.06)">
<title>dependencies</title>
<polygon fill="white" stroke="none" points="-4,4 -4,-1180.06 886.439,-1180.06 886.439,4 -4,4"/>
<!-- ./function.py -->
<g id="node1" class="node"><title>./function.py</title>
<ellipse fill="lightgrey" stroke="black" cx="748.439" cy="-697.77" rx="30.2815" ry="18"/>
<text text-anchor="middle" x="748.439" y="-696.17" font-family="Times,serif" font-size="7.00">./function.py</text>
</g>
<!-- ./control.py -->
<g id="node2" class="node"><title>./control.py</title>
<ellipse fill="lightgrey" stroke="black" cx="854.439" cy="-332.77" rx="27.8159" ry="18"/>
<text text-anchor="middle" x="854.439" y="-331.17" font-family="Times,serif" font-size="7.00">./control.py</text>
</g>
<!-- ./function.py&#45;&gt;./control.py -->
<g id="edge1" class="edge"><title>./function.py&#45;&gt;./control.py</title>
<path fill="none" stroke="black" d="M754.525,-679.918C771.356,-620.85 825.321,-431.453 845.62,-360.212"/>
<polygon fill="black" stroke="black" points="848.988,-361.164 848.362,-350.588 842.256,-359.246 848.988,-361.164"/>
</g>
<!-- ./mixins.py -->
<g id="node3" class="node"><title>./mixins.py</title>
<ellipse fill="lightgrey" stroke="black" cx="748.439" cy="-1083.77" rx="27.8159" ry="18"/>
<text text-anchor="middle" x="748.439" y="-1082.17" font-family="Times,serif" font-size="7.00">./mixins.py</text>
</g>
<!-- ./monoid.py -->
<g id="node4" class="node"><title>./monoid.py</title>
<ellipse fill="lightgrey" stroke="black" cx="615.439" cy="-174.77" rx="29.0483" ry="18"/>
<text text-anchor="middle" x="615.439" y="-173.17" font-family="Times,serif" font-size="7.00">./monoid.py</text>
</g>
<!-- ./on_collections.py -->
<g id="node5" class="node"><title>./on_collections.py</title>
<ellipse fill="lightgrey" stroke="black" cx="615.439" cy="-497.77" rx="40.9923" ry="18"/>
<text text-anchor="middle" x="615.439" y="-496.17" font-family="Times,serif" font-size="7.00">./on_collections.py</text>
</g>
<!-- ./on_collections.py&#45;&gt;./function.py -->
<g id="edge2" class="edge"><title>./on_collections.py&#45;&gt;./function.py</title>
<path fill="none" stroke="black" d="M644.439,-510.584C653.678,-515.837 663.437,-522.619 670.696,-530.77 707.682,-572.303 729.878,-634.693 740.279,-670.287"/>
<polygon fill="black" stroke="black" points="736.935,-671.324 743.017,-679.999 743.672,-669.424 736.935,-671.324"/>
</g>
<!-- ./pair.py -->
<g id="node6" class="node"><title>./pair.py</title>
<ellipse fill="lightgrey" stroke="black" cx="192.439" cy="-256.77" rx="27" ry="18"/>
<text text-anchor="middle" x="192.439" y="-255.17" font-family="Times,serif" font-size="7.00">./pair.py</text>
</g>
<!-- ./pair.py&#45;&gt;./control.py -->
<g id="edge3" class="edge"><title>./pair.py&#45;&gt;./control.py</title>
<path fill="none" stroke="black" d="M205.061,-240.486C239.519,-194.297 346.368,-65.7703 468.439,-65.7703 468.439,-65.7703 468.439,-65.7703 616.439,-65.7703 704.707,-65.7703 732.764,-94.8304 790.3,-161.77 826.348,-203.709 842.603,-268.072 849.289,-304.703"/>
<polygon fill="black" stroke="black" points="845.862,-305.426 850.999,-314.691 852.761,-304.244 845.862,-305.426"/>
</g>
<!-- ./_dataclass.py -->
<g id="node7" class="node"><title>./_dataclass.py</title>
<ellipse fill="lightgrey" stroke="black" cx="331.439" cy="-324.77" rx="32.8626" ry="18"/>
<text text-anchor="middle" x="331.439" y="-323.17" font-family="Times,serif" font-size="7.00">./_dataclass.py</text>
</g>
<!-- ./pair.py&#45;&gt;./_dataclass.py -->
<g id="edge4" class="edge"><title>./pair.py&#45;&gt;./_dataclass.py</title>
<path fill="none" stroke="black" d="M214.545,-267.246C236.605,-278.196 271.527,-295.53 297.276,-308.31"/>
<polygon fill="black" stroke="black" points="295.793,-311.481 306.307,-312.792 298.905,-305.211 295.793,-311.481"/>
</g>
<!-- ./qlambda.py -->
<g id="node8" class="node"><title>./qlambda.py</title>
<ellipse fill="lightgrey" stroke="black" cx="615.439" cy="-1064.77" rx="30.2815" ry="18"/>
<text text-anchor="middle" x="615.439" y="-1063.17" font-family="Times,serif" font-size="7.00">./qlambda.py</text>
</g>
<!-- ./qlambda.py&#45;&gt;./function.py -->
<g id="edge5" class="edge"><title>./qlambda.py&#45;&gt;./function.py</title>
<path fill="none" stroke="black" d="M640.661,-1054.81C651.375,-1049.24 663.217,-1041.27 670.696,-1030.77 679.693,-1018.13 725.218,-803.851 741.575,-725.864"/>
<polygon fill="black" stroke="black" points="745.059,-726.304 743.683,-715.799 738.208,-724.869 745.059,-726.304"/>
</g>
<!-- ./qlambda.py&#45;&gt;./control.py -->
<g id="edge6" class="edge"><title>./qlambda.py&#45;&gt;./control.py</title>
<path fill="none" stroke="black" d="M636.909,-1051.95C648.114,-1044.08 661.539,-1033.15 670.696,-1020.77 755.057,-906.683 752.201,-861.449 790.3,-724.77 827.395,-591.698 845.105,-426.743 851.047,-361.374"/>
<polygon fill="black" stroke="black" points="854.565,-361.324 851.962,-351.054 847.593,-360.706 854.565,-361.324"/>
</g>
<!-- ./qlambda.py&#45;&gt;./mixins.py -->
<g id="edge7" class="edge"><title>./qlambda.py&#45;&gt;./mixins.py</title>
<path fill="none" stroke="black" d="M644.864,-1068.89C664.176,-1071.69 689.9,-1075.42 710.755,-1078.45"/>
<polygon fill="black" stroke="black" points="710.456,-1081.94 720.855,-1079.91 711.461,-1075.02 710.456,-1081.94"/>
</g>
<!-- ./list.py -->
<g id="node9" class="node"><title>./list.py</title>
<ellipse fill="lightgrey" stroke="black" cx="615.439" cy="-249.77" rx="27" ry="18"/>
<text text-anchor="middle" x="615.439" y="-248.17" font-family="Times,serif" font-size="7.00">./list.py</text>
</g>
<!-- ./list.py&#45;&gt;./control.py -->
<g id="edge8" class="edge"><title>./list.py&#45;&gt;./control.py</title>
<path fill="none" stroke="black" d="M641.585,-245.142C676.841,-239.921 742.047,-234.979 790.3,-258.77 811.26,-269.105 828.008,-289.887 838.974,-306.804"/>
<polygon fill="black" stroke="black" points="836.237,-309.034 844.461,-315.714 842.197,-305.363 836.237,-309.034"/>
</g>
<!-- ./convert.py -->
<g id="node10" class="node"><title>./convert.py</title>
<ellipse fill="lightgrey" stroke="black" cx="331.439" cy="-536.77" rx="28.432" ry="18"/>
<text text-anchor="middle" x="331.439" y="-535.17" font-family="Times,serif" font-size="7.00">./convert.py</text>
</g>
<!-- ./convert.py&#45;&gt;./function.py -->
<g id="edge9" class="edge"><title>./convert.py&#45;&gt;./function.py</title>
<path fill="none" stroke="black" d="M359.143,-531.834C419.855,-522.108 570.714,-506.531 670.696,-569.77 707.289,-592.916 728.809,-640.386 739.342,-670.561"/>
<polygon fill="black" stroke="black" points="736.027,-671.683 742.499,-680.072 742.67,-669.478 736.027,-671.683"/>
</g>
<!-- ./iterable.py -->
<g id="node11" class="node"><title>./iterable.py</title>
<ellipse fill="lightgrey" stroke="black" cx="469.439" cy="-441.77" rx="28.432" ry="18"/>
<text text-anchor="middle" x="469.439" y="-440.17" font-family="Times,serif" font-size="7.00">./iterable.py</text>
</g>
<!-- ./iterable.py&#45;&gt;./function.py -->
<g id="edge12" class="edge"><title>./iterable.py&#45;&gt;./function.py</title>
<path fill="none" stroke="black" d="M497.262,-437.547C539.301,-432.525 621.021,-429.412 670.696,-470.77 731.033,-521.006 744.116,-620.544 746.825,-669.389"/>
<polygon fill="black" stroke="black" points="743.336,-669.724 747.278,-679.558 750.33,-669.412 743.336,-669.724"/>
</g>
<!-- ./iterable.py&#45;&gt;./control.py -->
<g id="edge10" class="edge"><title>./iterable.py&#45;&gt;./control.py</title>
<path fill="none" stroke="black" d="M497.414,-437.87C569.643,-427.31 763.757,-398.131 790.3,-385.77 805.901,-378.505 820.777,-366.371 832.166,-355.545"/>
<polygon fill="black" stroke="black" points="834.809,-357.855 839.46,-348.336 829.888,-352.876 834.809,-357.855"/>
</g>
<!-- ./iterable.py&#45;&gt;./monoid.py -->
<g id="edge11" class="edge"><title>./iterable.py&#45;&gt;./monoid.py</title>
<path fill="none" stroke="black" d="M474.761,-423.948C484.864,-384.787 512.824,-289.428 560.181,-222.77 567.75,-212.117 578.113,-202.204 587.755,-194.186"/>
<polygon fill="black" stroke="black" points="589.973,-196.893 595.608,-187.921 585.608,-191.421 589.973,-196.893"/>
</g>
<!-- ./iterable.py&#45;&gt;./on_collections.py -->
<g id="edge13" class="edge"><title>./iterable.py&#45;&gt;./on_collections.py</title>
<path fill="none" stroke="black" d="M494.217,-451.018C516.105,-459.529 548.996,-472.32 574.845,-482.373"/>
<polygon fill="black" stroke="black" points="573.781,-485.714 584.369,-486.077 576.318,-479.19 573.781,-485.714"/>
</g>
<!-- ./utils.py -->
<g id="node12" class="node"><title>./utils.py</title>
<ellipse fill="lightgrey" stroke="black" cx="615.439" cy="-914.77" rx="27" ry="18"/>
<text text-anchor="middle" x="615.439" y="-913.17" font-family="Times,serif" font-size="7.00">./utils.py</text>
</g>
<!-- ./maybe.py -->
<g id="node13" class="node"><title>./maybe.py</title>
<ellipse fill="lightgrey" stroke="black" cx="748.439" cy="-285.77" rx="27" ry="18"/>
<text text-anchor="middle" x="748.439" y="-284.17" font-family="Times,serif" font-size="7.00">./maybe.py</text>
</g>
<!-- ./maybe.py&#45;&gt;./control.py -->
<g id="edge14" class="edge"><title>./maybe.py&#45;&gt;./control.py</title>
<path fill="none" stroke="black" d="M771.24,-295.623C785.879,-302.238 805.403,-311.062 821.75,-318.45"/>
<polygon fill="black" stroke="black" points="820.393,-321.677 830.947,-322.606 823.276,-315.298 820.393,-321.677"/>
</g>
<!-- ./tests/tensor.py -->
<g id="node14" class="node"><title>./tests/tensor.py</title>
<ellipse fill="lightgrey" stroke="black" cx="50.4386" cy="-891.77" rx="35.3285" ry="18"/>
<text text-anchor="middle" x="50.4386" y="-890.17" font-family="Times,serif" font-size="7.00">./tests/tensor.py</text>
</g>
<!-- ./collections/dataclasses_.py -->
<g id="node15" class="node"><title>./collections/dataclasses_.py</title>
<ellipse fill="lightgrey" stroke="black" cx="192.439" cy="-449.77" rx="55.6319" ry="18"/>
<text text-anchor="middle" x="192.439" y="-448.17" font-family="Times,serif" font-size="7.00">./collections/dataclasses_.py</text>
</g>
<!-- ./collections/dataclasses_.py&#45;&gt;./function.py -->
<g id="edge18" class="edge"><title>./collections/dataclasses_.py&#45;&gt;./function.py</title>
<path fill="none" stroke="black" d="M202.298,-467.808C215.994,-493.625 244.868,-540.553 283.995,-563.77 434.003,-652.78 513.229,-555.743 670.696,-630.77 692.451,-641.136 712.787,-659.446 727.053,-674.309"/>
<polygon fill="black" stroke="black" points="724.56,-676.768 733.934,-681.706 729.686,-672.001 724.56,-676.768"/>
</g>
<!-- ./collections/dataclasses_.py&#45;&gt;./control.py -->
<g id="edge15" class="edge"><title>./collections/dataclasses_.py&#45;&gt;./control.py</title>
<path fill="none" stroke="black" d="M243.106,-442.015C345.644,-425.824 588.088,-386.614 790.3,-346.77 799.345,-344.988 809.082,-342.909 818.137,-340.907"/>
<polygon fill="black" stroke="black" points="819.004,-344.3 827.998,-338.699 817.475,-337.469 819.004,-344.3"/>
</g>
<!-- ./collections/dataclasses_.py&#45;&gt;./on_collections.py -->
<g id="edge19" class="edge"><title>./collections/dataclasses_.py&#45;&gt;./on_collections.py</title>
<path fill="none" stroke="black" d="M245.484,-455.704C327.491,-465.054 485.656,-483.087 565.616,-492.204"/>
<polygon fill="black" stroke="black" points="565.567,-495.721 575.899,-493.376 566.36,-488.766 565.567,-495.721"/>
</g>
<!-- ./collections/dataclasses_.py&#45;&gt;./_dataclass.py -->
<g id="edge20" class="edge"><title>./collections/dataclasses_.py&#45;&gt;./_dataclass.py</title>
<path fill="none" stroke="black" d="M208.96,-432.25C226.363,-413.036 255.844,-381.749 283.995,-357.77 289.358,-353.202 295.331,-348.622 301.161,-344.39"/>
<polygon fill="black" stroke="black" points="303.37,-347.114 309.51,-338.48 299.326,-341.4 303.37,-347.114"/>
</g>
<!-- ./collections/dataclasses_.py&#45;&gt;./list.py -->
<g id="edge16" class="edge"><title>./collections/dataclasses_.py&#45;&gt;./list.py</title>
<path fill="none" stroke="black" d="M219.166,-433.684C237.061,-422.75 261.629,-408.246 283.995,-396.77 340.152,-367.958 511.904,-293.739 583.056,-263.201"/>
<polygon fill="black" stroke="black" points="584.595,-266.35 592.406,-259.192 581.836,-259.917 584.595,-266.35"/>
</g>
<!-- ./collections/dataclasses_.py&#45;&gt;./convert.py -->
<g id="edge21" class="edge"><title>./collections/dataclasses_.py&#45;&gt;./convert.py</title>
<path fill="none" stroke="black" d="M218.567,-465.727C242.233,-480.757 277.634,-503.237 302.252,-518.87"/>
<polygon fill="black" stroke="black" points="300.474,-521.887 310.792,-524.294 304.226,-515.978 300.474,-521.887"/>
</g>
<!-- ./collections/dataclasses_.py&#45;&gt;./iterable.py -->
<g id="edge17" class="edge"><title>./collections/dataclasses_.py&#45;&gt;./iterable.py</title>
<path fill="none" stroke="black" d="M248.099,-448.18C302.125,-446.608 383.355,-444.245 430.618,-442.871"/>
<polygon fill="black" stroke="black" points="430.839,-446.366 440.732,-442.576 430.635,-439.369 430.839,-446.366"/>
</g>
<!-- ./tensor/tensor.py -->
<g id="node16" class="node"><title>./tensor/tensor.py</title>
<ellipse fill="lightgrey" stroke="black" cx="331.439" cy="-859.77" rx="37.9093" ry="18"/>
<text text-anchor="middle" x="331.439" y="-858.17" font-family="Times,serif" font-size="7.00">./tensor/tensor.py</text>
</g>
<!-- ./collections/dataclasses_.py&#45;&gt;./tensor/tensor.py -->
<g id="edge22" class="edge"><title>./collections/dataclasses_.py&#45;&gt;./tensor/tensor.py</title>
<path fill="none" stroke="black" d="M195.873,-468.088C205.165,-535.867 240.096,-771.625 283.995,-831.77 286.83,-835.653 290.381,-839.102 294.251,-842.134"/>
<polygon fill="black" stroke="black" points="292.282,-845.027 302.513,-847.779 296.231,-839.248 292.282,-845.027"/>
</g>
<!-- ./tensor/tensor.py&#45;&gt;./control.py -->
<g id="edge45" class="edge"><title>./tensor/tensor.py&#45;&gt;./control.py</title>
<path fill="none" stroke="black" d="M334.744,-877.91C340.666,-916.992 359.996,-1009.72 414.739,-1060.77 537.894,-1175.61 666.509,-1224.92 790.3,-1110.77 846.441,-1059 852.668,-495.204 853.354,-361.218"/>
<polygon fill="black" stroke="black" points="856.855,-360.974 853.4,-350.958 849.855,-360.942 856.855,-360.974"/>
</g>
<!-- ./tensor/tensor.py&#45;&gt;./mixins.py -->
<g id="edge46" class="edge"><title>./tensor/tensor.py&#45;&gt;./mixins.py</title>
<path fill="none" stroke="black" d="M338.305,-877.917C349.097,-908.912 374.725,-972.593 414.739,-1012.77 466.649,-1064.89 488.885,-1073.66 560.181,-1091.77 611.638,-1104.84 673.569,-1098 711.72,-1091.32"/>
<polygon fill="black" stroke="black" points="712.623,-1094.71 721.822,-1089.46 711.353,-1087.83 712.623,-1094.71"/>
</g>
<!-- ./tensor/unary_reduce.py -->
<g id="node23" class="node"><title>./tensor/unary_reduce.py</title>
<ellipse fill="lightgrey" stroke="black" cx="469.439" cy="-851.77" rx="49.8524" ry="18"/>
<text text-anchor="middle" x="469.439" y="-850.17" font-family="Times,serif" font-size="7.00">./tensor/unary_reduce.py</text>
</g>
<!-- ./tensor/tensor.py&#45;&gt;./tensor/unary_reduce.py -->
<g id="edge49" class="edge"><title>./tensor/tensor.py&#45;&gt;./tensor/unary_reduce.py</title>
<path fill="none" stroke="black" d="M369.242,-857.605C381.902,-856.861 396.405,-856.008 410.34,-855.188"/>
<polygon fill="black" stroke="black" points="410.575,-858.68 420.353,-854.599 410.164,-851.692 410.575,-858.68"/>
</g>
<!-- ./tensor/unary_with_args.py -->
<g id="node25" class="node"><title>./tensor/unary_with_args.py</title>
<ellipse fill="lightgrey" stroke="black" cx="615.439" cy="-969.77" rx="55.016" ry="18"/>
<text text-anchor="middle" x="615.439" y="-968.17" font-family="Times,serif" font-size="7.00">./tensor/unary_with_args.py</text>
</g>
<!-- ./tensor/tensor.py&#45;&gt;./tensor/unary_with_args.py -->
<g id="edge50" class="edge"><title>./tensor/tensor.py&#45;&gt;./tensor/unary_with_args.py</title>
<path fill="none" stroke="black" d="M352.446,-875.05C368.545,-886.738 392.135,-902.538 414.739,-912.77 461.166,-933.787 517.203,-948.972 558.086,-958.358"/>
<polygon fill="black" stroke="black" points="557.351,-961.78 567.875,-960.562 558.888,-954.951 557.351,-961.78"/>
</g>
<!-- ./tensor/construct.py -->
<g id="node26" class="node"><title>./tensor/construct.py</title>
<ellipse fill="lightgrey" stroke="black" cx="615.439" cy="-780.77" rx="42.9561" ry="18"/>
<text text-anchor="middle" x="615.439" y="-779.17" font-family="Times,serif" font-size="7.00">./tensor/construct.py</text>
</g>
<!-- ./tensor/tensor.py&#45;&gt;./tensor/construct.py -->
<g id="edge51" class="edge"><title>./tensor/tensor.py&#45;&gt;./tensor/construct.py</title>
<path fill="none" stroke="black" d="M358.652,-847.148C374.591,-839.847 395.514,-830.918 414.739,-824.77 465.084,-808.672 524.414,-796.417 565.251,-788.979"/>
<polygon fill="black" stroke="black" points="565.992,-792.402 575.217,-787.192 564.757,-785.512 565.992,-792.402"/>
</g>
<!-- ./tensor/binary.py -->
<g id="node27" class="node"><title>./tensor/binary.py</title>
<ellipse fill="lightgrey" stroke="black" cx="469.439" cy="-985.77" rx="37.9093" ry="18"/>
<text text-anchor="middle" x="469.439" y="-984.17" font-family="Times,serif" font-size="7.00">./tensor/binary.py</text>
</g>
<!-- ./tensor/tensor.py&#45;&gt;./tensor/binary.py -->
<g id="edge47" class="edge"><title>./tensor/tensor.py&#45;&gt;./tensor/binary.py</title>
<path fill="none" stroke="black" d="M347.046,-876.336C369.662,-901.948 410.958,-948.567 414.739,-951.77 421.015,-957.085 428.188,-962.188 435.204,-966.75"/>
<polygon fill="black" stroke="black" points="433.596,-969.873 443.928,-972.216 437.312,-963.941 433.596,-969.873"/>
</g>
<!-- ./tensor/unary.py -->
<g id="node30" class="node"><title>./tensor/unary.py</title>
<ellipse fill="lightgrey" stroke="black" cx="469.439" cy="-756.77" rx="36.6773" ry="18"/>
<text text-anchor="middle" x="469.439" y="-755.17" font-family="Times,serif" font-size="7.00">./tensor/unary.py</text>
</g>
<!-- ./tensor/tensor.py&#45;&gt;./tensor/unary.py -->
<g id="edge48" class="edge"><title>./tensor/tensor.py&#45;&gt;./tensor/unary.py</title>
<path fill="none" stroke="black" d="M357.504,-846.583C364.718,-842.288 372.387,-837.212 378.882,-831.77 397.438,-816.224 396.355,-806.519 414.739,-790.77 421.044,-785.37 428.281,-780.207 435.358,-775.608"/>
<polygon fill="black" stroke="black" points="437.529,-778.379 444.153,-770.11 433.819,-772.443 437.529,-778.379"/>
</g>
<!-- ./collections/table.py -->
<g id="node17" class="node"><title>./collections/table.py</title>
<ellipse fill="lightgrey" stroke="black" cx="50.4386" cy="-256.77" rx="43.5724" ry="18"/>
<text text-anchor="middle" x="50.4386" y="-255.17" font-family="Times,serif" font-size="7.00">./collections/table.py</text>
</g>
<!-- ./collections/table.py&#45;&gt;./control.py -->
<g id="edge23" class="edge"><title>./collections/table.py&#45;&gt;./control.py</title>
<path fill="none" stroke="black" d="M82.9166,-268.816C98.7841,-274.353 118.467,-280.423 136.623,-283.77 242.685,-303.326 271.264,-290.693 378.882,-297.77 542.188,-308.51 736.93,-323.588 816.66,-329.858"/>
<polygon fill="black" stroke="black" points="816.447,-333.352 826.691,-330.648 816.997,-326.373 816.447,-333.352"/>
</g>
<!-- ./collections/table.py&#45;&gt;./monoid.py -->
<g id="edge24" class="edge"><title>./collections/table.py&#45;&gt;./monoid.py</title>
<path fill="none" stroke="black" d="M80.0485,-243.434C96.3205,-236.34 117.259,-228.022 136.623,-222.77 295.806,-179.601 494.303,-174.487 576.294,-174.392"/>
<polygon fill="black" stroke="black" points="576.386,-177.892 586.391,-174.406 576.396,-170.892 576.386,-177.892"/>
</g>
<!-- ./collections/table.py&#45;&gt;./list.py -->
<g id="edge26" class="edge"><title>./collections/table.py&#45;&gt;./list.py</title>
<path fill="none" stroke="black" d="M82.4414,-244.416C98.3578,-238.727 118.225,-232.616 136.623,-229.77 185.654,-222.186 198.659,-228.417 248.254,-229.77 369.133,-233.069 512.206,-242.481 578.007,-247.12"/>
<polygon fill="black" stroke="black" points="578.038,-250.631 588.261,-247.849 578.534,-243.649 578.038,-250.631"/>
</g>
<!-- ./collections/table.py&#45;&gt;./collections/dataclasses_.py -->
<g id="edge25" class="edge"><title>./collections/table.py&#45;&gt;./collections/dataclasses_.py</title>
<path fill="none" stroke="black" d="M63.8627,-273.898C88.4893,-307.847 143.621,-383.85 172.684,-423.916"/>
<polygon fill="black" stroke="black" points="169.934,-426.085 178.639,-432.124 175.6,-421.975 169.934,-426.085"/>
</g>
<!-- ./collections/iterator.py -->
<g id="node18" class="node"><title>./collections/iterator.py</title>
<ellipse fill="lightgrey" stroke="black" cx="50.4386" cy="-947.77" rx="47.3866" ry="18"/>
<text text-anchor="middle" x="50.4386" y="-946.17" font-family="Times,serif" font-size="7.00">./collections/iterator.py</text>
</g>
<!-- ./collections/concatenate.py -->
<g id="node19" class="node"><title>./collections/concatenate.py</title>
<ellipse fill="lightgrey" stroke="black" cx="469.439" cy="-207.77" rx="54.8994" ry="18"/>
<text text-anchor="middle" x="469.439" y="-206.17" font-family="Times,serif" font-size="7.00">./collections/concatenate.py</text>
</g>
<!-- ./collections/concatenate.py&#45;&gt;./monoid.py -->
<g id="edge27" class="edge"><title>./collections/concatenate.py&#45;&gt;./monoid.py</title>
<path fill="none" stroke="black" d="M514.818,-197.6C535.132,-192.945 558.904,-187.497 578.13,-183.091"/>
<polygon fill="black" stroke="black" points="579.044,-186.472 588.01,-180.827 577.481,-179.649 579.044,-186.472"/>
</g>
<!-- ./collections/concatenate.py&#45;&gt;./list.py -->
<g id="edge28" class="edge"><title>./collections/concatenate.py&#45;&gt;./list.py</title>
<path fill="none" stroke="black" d="M510.934,-219.581C532.952,-226.003 559.867,-233.854 580.732,-239.939"/>
<polygon fill="black" stroke="black" points="579.86,-243.331 590.44,-242.771 581.82,-236.611 579.86,-243.331"/>
</g>
<!-- ./collections/dict.py -->
<g id="node20" class="node"><title>./collections/dict.py</title>
<ellipse fill="lightgrey" stroke="black" cx="748.439" cy="-18.7703" rx="41.7239" ry="18"/>
<text text-anchor="middle" x="748.439" y="-17.1703" font-family="Times,serif" font-size="7.00">./collections/dict.py</text>
</g>
<!-- ./collections/dict.py&#45;&gt;./control.py -->
<g id="edge29" class="edge"><title>./collections/dict.py&#45;&gt;./control.py</title>
<path fill="none" stroke="black" d="M773.235,-33.6105C779.631,-38.6529 785.967,-44.8007 790.3,-51.7703 841.055,-133.408 851.186,-250.909 853.085,-304.364"/>
<polygon fill="black" stroke="black" points="849.589,-304.57 853.371,-314.467 856.586,-304.372 849.589,-304.57"/>
</g>
<!-- ./collections/composite.py -->
<g id="node21" class="node"><title>./collections/composite.py</title>
<ellipse fill="lightgrey" stroke="black" cx="469.439" cy="-112.77" rx="52.4334" ry="18"/>
<text text-anchor="middle" x="469.439" y="-111.17" font-family="Times,serif" font-size="7.00">./collections/composite.py</text>
</g>
<!-- ./collections/composite.py&#45;&gt;./control.py -->
<g id="edge30" class="edge"><title>./collections/composite.py&#45;&gt;./control.py</title>
<path fill="none" stroke="black" d="M521.702,-115.109C563.327,-118.542 622.771,-126.994 670.696,-147.77 731.733,-174.231 744.655,-189.373 790.3,-237.77 810.124,-258.789 827.859,-286.705 839.448,-306.831"/>
<polygon fill="black" stroke="black" points="836.515,-308.756 844.475,-315.748 842.613,-305.318 836.515,-308.756"/>
</g>
<!-- ./collections/composite.py&#45;&gt;./monoid.py -->
<g id="edge31" class="edge"><title>./collections/composite.py&#45;&gt;./monoid.py</title>
<path fill="none" stroke="black" d="M502.755,-126.684C526.368,-136.851 558.263,-150.584 581.923,-160.77"/>
<polygon fill="black" stroke="black" points="580.621,-164.021 591.19,-164.76 583.389,-157.591 580.621,-164.021"/>
</g>
<!-- ./collections/composite.py&#45;&gt;./list.py -->
<g id="edge32" class="edge"><title>./collections/composite.py&#45;&gt;./list.py</title>
<path fill="none" stroke="black" d="M487.03,-129.792C504.833,-147.923 534.078,-177.318 560.181,-201.77 569.933,-210.906 580.937,-220.727 590.473,-229.09"/>
<polygon fill="black" stroke="black" points="588.242,-231.789 598.078,-235.725 592.844,-226.514 588.242,-231.789"/>
</g>
<!-- ./collections/foldable.py -->
<g id="node22" class="node"><title>./collections/foldable.py</title>
<ellipse fill="lightgrey" stroke="black" cx="50.4386" cy="-1002.77" rx="49.2358" ry="18"/>
<text text-anchor="middle" x="50.4386" y="-1001.17" font-family="Times,serif" font-size="7.00">./collections/foldable.py</text>
</g>
<!-- ./tensor/unary_reduce.py&#45;&gt;./function.py -->
<g id="edge33" class="edge"><title>./tensor/unary_reduce.py&#45;&gt;./function.py</title>
<path fill="none" stroke="black" d="M516.883,-857.289C560.186,-860.027 624.81,-857.728 670.696,-827.77 707.369,-803.827 728.865,-755.748 739.371,-725.247"/>
<polygon fill="black" stroke="black" points="742.732,-726.229 742.519,-715.637 736.08,-724.05 742.732,-726.229"/>
</g>
<!-- ./tensor/matrix.py -->
<g id="node24" class="node"><title>./tensor/matrix.py</title>
<ellipse fill="lightgrey" stroke="black" cx="192.439" cy="-836.77" rx="37.9093" ry="18"/>
<text text-anchor="middle" x="192.439" y="-835.17" font-family="Times,serif" font-size="7.00">./tensor/matrix.py</text>
</g>
<!-- ./tensor/matrix.py&#45;&gt;./tensor/tensor.py -->
<g id="edge34" class="edge"><title>./tensor/matrix.py&#45;&gt;./tensor/tensor.py</title>
<path fill="none" stroke="black" d="M228.364,-842.634C245.622,-845.531 266.656,-849.062 285.137,-852.165"/>
<polygon fill="black" stroke="black" points="284.659,-855.634 295.101,-853.838 285.818,-848.73 284.659,-855.634"/>
</g>
<!-- ./tensor/unary_with_args.py&#45;&gt;./function.py -->
<g id="edge35" class="edge"><title>./tensor/unary_with_args.py&#45;&gt;./function.py</title>
<path fill="none" stroke="black" d="M652.619,-956.219C659.34,-952.379 665.782,-947.61 670.696,-941.77 724.658,-877.647 740.765,-775.459 745.504,-726.18"/>
<polygon fill="black" stroke="black" points="749.015,-726.212 746.396,-715.946 742.041,-725.604 749.015,-726.212"/>
</g>
<!-- ./tensor/construct.py&#45;&gt;./function.py -->
<g id="edge36" class="edge"><title>./tensor/construct.py&#45;&gt;./function.py</title>
<path fill="none" stroke="black" d="M644.469,-767.287C653.031,-762.908 662.378,-757.86 670.696,-752.77 688.111,-742.114 706.747,-728.807 721.292,-717.952"/>
<polygon fill="black" stroke="black" points="723.466,-720.697 729.344,-711.882 719.252,-715.107 723.466,-720.697"/>
</g>
<!-- ./tensor/binary.py&#45;&gt;./function.py -->
<g id="edge37" class="edge"><title>./tensor/binary.py&#45;&gt;./function.py</title>
<path fill="none" stroke="black" d="M498.066,-997.602C540.092,-1013.55 620.487,-1035.72 670.696,-996.77 692.496,-979.859 728.882,-796.68 742.281,-725.67"/>
<polygon fill="black" stroke="black" points="745.756,-726.133 744.158,-715.659 738.876,-724.843 745.756,-726.133"/>
</g>
<!-- ./tensor/binary.py&#45;&gt;./utils.py -->
<g id="edge38" class="edge"><title>./tensor/binary.py&#45;&gt;./utils.py</title>
<path fill="none" stroke="black" d="M496.516,-972.913C521.203,-960.741 558.252,-942.474 584.217,-929.671"/>
<polygon fill="black" stroke="black" points="585.817,-932.785 593.238,-925.223 582.721,-926.506 585.817,-932.785"/>
</g>
<!-- ./tensor/binary.py&#45;&gt;./tensor/unary_with_args.py -->
<g id="edge39" class="edge"><title>./tensor/binary.py&#45;&gt;./tensor/unary_with_args.py</title>
<path fill="none" stroke="black" d="M506.776,-981.733C520.719,-980.184 537.048,-978.369 552.715,-976.628"/>
<polygon fill="black" stroke="black" points="553.331,-980.082 562.883,-975.499 552.558,-973.124 553.331,-980.082"/>
</g>
<!-- ./tensor/backends.py -->
<g id="node28" class="node"><title>./tensor/backends.py</title>
<ellipse fill="lightgrey" stroke="black" cx="615.439" cy="-669.77" rx="42.9561" ry="18"/>
<text text-anchor="middle" x="615.439" y="-668.17" font-family="Times,serif" font-size="7.00">./tensor/backends.py</text>
</g>
<!-- ./tensor/backends.py&#45;&gt;./function.py -->
<g id="edge40" class="edge"><title>./tensor/backends.py&#45;&gt;./function.py</title>
<path fill="none" stroke="black" d="M653.978,-677.794C671.548,-681.549 692.423,-686.011 709.982,-689.764"/>
<polygon fill="black" stroke="black" points="709.377,-693.214 719.888,-691.882 710.841,-686.369 709.377,-693.214"/>
</g>
<!-- ./tensor/vector.py -->
<g id="node29" class="node"><title>./tensor/vector.py</title>
<ellipse fill="lightgrey" stroke="black" cx="192.439" cy="-780.77" rx="37.9093" ry="18"/>
<text text-anchor="middle" x="192.439" y="-779.17" font-family="Times,serif" font-size="7.00">./tensor/vector.py</text>
</g>
<!-- ./tensor/vector.py&#45;&gt;./function.py -->
<g id="edge44" class="edge"><title>./tensor/vector.py&#45;&gt;./function.py</title>
<path fill="none" stroke="black" d="M216.436,-766.7C255.681,-743.305 338.726,-696.445 414.739,-670.77 477.105,-649.705 494.651,-649.021 560.181,-642.77 609.077,-638.106 623.933,-627.744 670.696,-642.77 690.917,-649.268 710.328,-663.278 724.569,-675.531"/>
<polygon fill="black" stroke="black" points="722.538,-678.41 732.324,-682.472 727.207,-673.195 722.538,-678.41"/>
</g>
<!-- ./tensor/vector.py&#45;&gt;./tensor/tensor.py -->
<g id="edge41" class="edge"><title>./tensor/vector.py&#45;&gt;./tensor/tensor.py</title>
<path fill="none" stroke="black" d="M219.007,-793.856C228.289,-798.723 238.813,-804.375 248.254,-809.77 264.449,-819.025 268.065,-822.066 283.995,-831.77 288.719,-834.648 293.721,-837.68 298.624,-840.643"/>
<polygon fill="black" stroke="black" points="296.892,-843.685 307.262,-845.855 300.508,-837.692 296.892,-843.685"/>
</g>
<!-- ./tensor/vector.py&#45;&gt;./tensor/binary.py -->
<g id="edge42" class="edge"><title>./tensor/vector.py&#45;&gt;./tensor/binary.py</title>
<path fill="none" stroke="black" d="M222.571,-791.81C231.651,-796.322 241.138,-802.274 248.254,-809.77 274.23,-837.134 258.102,-859.329 283.995,-886.77 324.088,-929.26 386.553,-957.423 427.487,-972.499"/>
<polygon fill="black" stroke="black" points="426.554,-975.883 437.148,-975.962 428.915,-969.293 426.554,-975.883"/>
</g>
<!-- ./tensor/vector.py&#45;&gt;./tensor/unary.py -->
<g id="edge43" class="edge"><title>./tensor/vector.py&#45;&gt;./tensor/unary.py</title>
<path fill="none" stroke="black" d="M229.957,-777.583C279.781,-773.235 369.032,-765.446 423.085,-760.728"/>
<polygon fill="black" stroke="black" points="423.42,-764.213 433.078,-759.856 422.811,-757.239 423.42,-764.213"/>
</g>
<!-- ./tensor/unary.py&#45;&gt;./function.py -->
<g id="edge53" class="edge"><title>./tensor/unary.py&#45;&gt;./function.py</title>
<path fill="none" stroke="black" d="M490.143,-771.982C507.498,-784.355 534.02,-800.856 560.181,-807.77 607.668,-820.321 627.148,-830.488 670.696,-807.77 703.831,-790.485 725.583,-751.638 737.2,-725.059"/>
<polygon fill="black" stroke="black" points="740.549,-726.12 741.159,-715.543 734.087,-723.431 740.549,-726.12"/>
</g>
<!-- ./tensor/unary.py&#45;&gt;./list.py -->
<g id="edge52" class="edge"><title>./tensor/unary.py&#45;&gt;./list.py</title>
<path fill="none" stroke="black" d="M498.979,-745.819C508.426,-740.801 518.065,-733.895 524.138,-724.77 587.306,-629.848 538.552,-582.72 560.181,-470.77 573.792,-400.324 595.397,-318.607 606.804,-277.064"/>
<polygon fill="black" stroke="black" points="610.185,-277.969 609.474,-267.399 603.438,-276.106 610.185,-277.969"/>
</g>
<!-- ./tensor/unary.py&#45;&gt;./utils.py -->
<g id="edge54" class="edge"><title>./tensor/unary.py&#45;&gt;./utils.py</title>
<path fill="none" stroke="black" d="M485.307,-773.084C511.01,-801.286 563.823,-859.234 593.324,-891.603"/>
<polygon fill="black" stroke="black" points="590.968,-894.214 600.291,-899.247 596.142,-889.498 590.968,-894.214"/>
</g>
<!-- ./tensor/impls/matmul.py -->
<g id="node31" class="node"><title>./tensor/impls/matmul.py</title>
<ellipse fill="lightgrey" stroke="black" cx="50.4386" cy="-836.77" rx="50.4692" ry="18"/>
<text text-anchor="middle" x="50.4386" y="-835.17" font-family="Times,serif" font-size="7.00">./tensor/impls/matmul.py</text>
</g>
<!-- ./tensor/impls/matmul.py&#45;&gt;./tensor/tensor.py -->
<g id="edge58" class="edge"><title>./tensor/impls/matmul.py&#45;&gt;./tensor/tensor.py</title>
<path fill="none" stroke="black" d="M84.8578,-849.981C100.341,-855.417 119.145,-861.067 136.623,-863.77 186.695,-871.516 244.902,-868.768 284.36,-865.19"/>
<polygon fill="black" stroke="black" points="284.851,-868.659 294.47,-864.218 284.181,-861.691 284.851,-868.659"/>
</g>
<!-- ./tensor/impls/matmul.py&#45;&gt;./tensor/matrix.py -->
<g id="edge56" class="edge"><title>./tensor/impls/matmul.py&#45;&gt;./tensor/matrix.py</title>
<path fill="none" stroke="black" d="M100.797,-836.77C114.85,-836.77 130.121,-836.77 144.053,-836.77"/>
<polygon fill="black" stroke="black" points="144.403,-840.27 154.403,-836.77 144.403,-833.27 144.403,-840.27"/>
</g>
<!-- ./tensor/impls/matmul.py&#45;&gt;./tensor/binary.py -->
<g id="edge55" class="edge"><title>./tensor/impls/matmul.py&#45;&gt;./tensor/binary.py</title>
<path fill="none" stroke="black" d="M79.0381,-851.782C95.5159,-860.471 116.993,-871.323 136.623,-879.77 237.336,-923.107 361.822,-958.226 425.895,-975.031"/>
<polygon fill="black" stroke="black" points="425.088,-978.438 435.647,-977.57 426.851,-971.663 425.088,-978.438"/>
</g>
<!-- ./tensor/impls/matmul.py&#45;&gt;./tensor/vector.py -->
<g id="edge57" class="edge"><title>./tensor/impls/matmul.py&#45;&gt;./tensor/vector.py</title>
<path fill="none" stroke="black" d="M84.6167,-823.499C105.232,-815.253 131.804,-804.624 153.288,-796.03"/>
<polygon fill="black" stroke="black" points="154.777,-799.205 162.762,-792.241 152.177,-792.705 154.777,-799.205"/>
</g>
<!-- ./tensor/impls/matmul.py&#45;&gt;./tensor/unary.py -->
<g id="edge59" class="edge"><title>./tensor/impls/matmul.py&#45;&gt;./tensor/unary.py</title>
<path fill="none" stroke="black" d="M63.0663,-819.082C77.5279,-798.876 104.298,-766.915 136.623,-753.77 234.136,-714.119 361.494,-732.6 426.413,-746.428"/>
<polygon fill="black" stroke="black" points="425.763,-749.869 436.282,-748.598 427.266,-743.032 425.763,-749.869"/>
</g>
<!-- ./tensor/impls/construct.py -->
<g id="node32" class="node"><title>./tensor/impls/construct.py</title>
<ellipse fill="lightgrey" stroke="black" cx="469.439" cy="-697.77" rx="53.0497" ry="18"/>
<text text-anchor="middle" x="469.439" y="-696.17" font-family="Times,serif" font-size="7.00">./tensor/impls/construct.py</text>
</g>
<!-- ./tensor/impls/construct.py&#45;&gt;./tensor/construct.py -->
<g id="edge61" class="edge"><title>./tensor/impls/construct.py&#45;&gt;./tensor/construct.py</title>
<path fill="none" stroke="black" d="M496.756,-713.236C505.502,-718.433 515.271,-724.301 524.138,-729.77 540.312,-739.746 543.711,-743.292 560.181,-752.77 565.788,-755.997 571.806,-759.277 577.719,-762.401"/>
<polygon fill="black" stroke="black" points="576.365,-765.642 586.852,-767.151 579.596,-759.432 576.365,-765.642"/>
</g>
<!-- ./tensor/impls/construct.py&#45;&gt;./tensor/backends.py -->
<g id="edge60" class="edge"><title>./tensor/impls/construct.py&#45;&gt;./tensor/backends.py</title>
<path fill="none" stroke="black" d="M516.001,-688.911C531.818,-685.835 549.611,-682.376 565.675,-679.252"/>
<polygon fill="black" stroke="black" points="566.796,-682.6 575.944,-677.255 565.46,-675.728 566.796,-682.6"/>
</g>
<!-- ./tensor/impls/unary.py -->
<g id="node33" class="node"><title>./tensor/impls/unary.py</title>
<ellipse fill="lightgrey" stroke="black" cx="331.439" cy="-804.77" rx="47.3866" ry="18"/>
<text text-anchor="middle" x="331.439" y="-803.17" font-family="Times,serif" font-size="7.00">./tensor/impls/unary.py</text>
</g>
<!-- ./tensor/impls/unary.py&#45;&gt;./tensor/unary_with_args.py -->
<g id="edge62" class="edge"><title>./tensor/impls/unary.py&#45;&gt;./tensor/unary_with_args.py</title>
<path fill="none" stroke="black" d="M360.12,-819.189C366.599,-823.163 373.247,-827.772 378.882,-832.77 398.274,-849.972 393.418,-864.027 414.739,-878.77 456.618,-907.729 479.2,-888.834 524.138,-912.77 542.285,-922.436 542.949,-930.555 560.181,-941.77 564.566,-944.624 569.277,-947.419 574.026,-950.07"/>
<polygon fill="black" stroke="black" points="572.664,-953.312 583.128,-954.972 575.983,-947.149 572.664,-953.312"/>
</g>
<!-- ./tensor/impls/unary.py&#45;&gt;./tensor/unary.py -->
<g id="edge63" class="edge"><title>./tensor/impls/unary.py&#45;&gt;./tensor/unary.py</title>
<path fill="none" stroke="black" d="M366.757,-792.658C385.875,-785.91 409.745,-777.486 429.552,-770.495"/>
<polygon fill="black" stroke="black" points="430.936,-773.718 439.201,-767.09 428.606,-767.117 430.936,-773.718"/>
</g>
<!-- ./io/api.py -->
<g id="node34" class="node"><title>./io/api.py</title>
<ellipse fill="lightgrey" stroke="black" cx="615.439" cy="-725.77" rx="27" ry="18"/>
<text text-anchor="middle" x="615.439" y="-724.17" font-family="Times,serif" font-size="7.00">./io/api.py</text>
</g>
<!-- ./io/api.py&#45;&gt;./function.py -->
<g id="edge64" class="edge"><title>./io/api.py&#45;&gt;./function.py</title>
<path fill="none" stroke="black" d="M641.387,-720.438C660.741,-716.301 687.883,-710.5 709.863,-705.802"/>
<polygon fill="black" stroke="black" points="710.818,-709.177 719.866,-703.664 709.355,-702.331 710.818,-709.177"/>
</g>
<!-- ./io/data_class_fs.py -->
<g id="node35" class="node"><title>./io/data_class_fs.py</title>
<ellipse fill="lightgrey" stroke="black" cx="50.4386" cy="-1058.77" rx="42.9561" ry="18"/>
<text text-anchor="middle" x="50.4386" y="-1057.17" font-family="Times,serif" font-size="7.00">./io/data_class_fs.py</text>
</g>
</g>
</svg>
